/* XPM */
static char *a25cad47b59f4d959dd2a02b13d8aaebr0o1xEMtFQeTNxT3[] = {
/* columns rows colors chars-per-pixel */
"64 64 256 2 ",
"   c black",
".  c #0000A8",
"X  c #00A800",
"o  c #00A8A8",
"O  c #A80000",
"+  c #A800A8",
"@  c #A85400",
"#  c gray66",
"$  c gray33",
"%  c #5454FC",
"&  c #54FC54",
"*  c #54FCFC",
"=  c #FC5454",
"-  c #FC54FC",
";  c #FCFC54",
":  c gray99",
">  c #ECECEC",
",  c gainsboro",
"<  c #D0D0D0",
"1  c #C0C0C0",
"2  c #B4B4B4",
"3  c gray66",
"4  c #989898",
"5  c gray55",
"6  c #7C7C7C",
"7  c gray44",
"8  c #646464",
"9  c gray33",
"0  c #484848",
"q  c gray22",
"w  c #2C2C2C",
"e  c #202020",
"r  c #FC0000",
"t  c #EC0000",
"y  c #E00000",
"u  c #D40000",
"i  c #C80000",
"p  c #BC0000",
"a  c #B00000",
"s  c #A40000",
"d  c #980000",
"f  c #880000",
"g  c #7C0000",
"h  c #700000",
"j  c #640000",
"k  c #580000",
"l  c #4C0000",
"z  c #400000",
"x  c #FCD8D8",
"c  c #FCB8B8",
"v  c #FC9C9C",
"b  c #FC7C7C",
"n  c #FC5C5C",
"m  c #FC4040",
"M  c #FC2020",
"N  c #FC0000",
"B  c #FCA85C",
"V  c #FC9840",
"C  c #FC8820",
"Z  c #FC7800",
"A  c #E46C00",
"S  c #CC6000",
"D  c #B45400",
"F  c #9C4C00",
"G  c #FCFCD8",
"H  c #FCFCB8",
"J  c #FCFC9C",
"K  c #FCFC7C",
"L  c #FCF85C",
"P  c #FCF440",
"I  c #FCF420",
"U  c #FCF400",
"Y  c #E4D800",
"T  c #CCC400",
"R  c #B4AC00",
"E  c #9C9C00",
"W  c #848400",
"Q  c #706C00",
"!  c #585400",
"~  c #404000",
"^  c #D0FC5C",
"/  c #C4FC40",
"(  c #B4FC20",
")  c #A0FC00",
"_  c #90E400",
"`  c #80CC00",
"'  c #74B400",
"]  c #609C00",
"[  c #D8FCD8",
"{  c #BCFCB8",
"}  c #9CFC9C",
"|  c #80FC7C",
" . c #60FC5C",
".. c #40FC40",
"X. c #20FC20",
"o. c #00FC00",
"O. c #00FC00",
"+. c #00EC00",
"@. c #00E000",
"#. c #00D400",
"$. c #04C800",
"%. c #04BC00",
"&. c #04B000",
"*. c #04A400",
"=. c #049800",
"-. c #048800",
";. c #047C00",
":. c #047000",
">. c #046400",
",. c #045800",
"<. c #044C00",
"1. c #044000",
"2. c #D8FCFC",
"3. c #B8FCFC",
"4. c #9CFCFC",
"5. c #7CFCF8",
"6. c #5CFCFC",
"7. c #40FCFC",
"8. c #20FCFC",
"9. c #00FCFC",
"0. c #00E4E4",
"q. c #00CCCC",
"w. c #00B4B4",
"e. c #009C9C",
"r. c #008484",
"t. c #007070",
"y. c #005858",
"u. c #004040",
"i. c #5CBCFC",
"p. c #40B0FC",
"a. c #20A8FC",
"s. c #009CFC",
"d. c #008CE4",
"f. c #007CCC",
"g. c #006CB4",
"h. c #005C9C",
"j. c #D8D8FC",
"k. c #B8BCFC",
"l. c #9C9CFC",
"z. c #7C80FC",
"x. c #5C60FC",
"c. c #4040FC",
"v. c #2024FC",
"b. c #0004FC",
"n. c #0000FC",
"m. c #0000EC",
"M. c #0000E0",
"N. c #0000D4",
"B. c #0000C8",
"V. c #0000BC",
"C. c #0000B0",
"Z. c #0000A4",
"A. c #000098",
"S. c #000088",
"D. c #00007C",
"F. c #000070",
"G. c #000064",
"H. c #000058",
"J. c #00004C",
"K. c #000040",
"L. c #282828",
"P. c #FCE034",
"I. c #FCD424",
"U. c #FCCC18",
"Y. c #FCC008",
"T. c #FCB400",
"R. c #B420FC",
"E. c #A800FC",
"W. c #9800E4",
"Q. c #8000CC",
"!. c #7400B4",
"~. c #60009C",
"^. c #500084",
"/. c #440070",
"(. c #340058",
"). c #280040",
"_. c #FCD8FC",
"`. c #FCB8FC",
"'. c #FC9CFC",
"]. c #FC7CFC",
"[. c #FC5CFC",
"{. c #FC40FC",
"}. c #FC20FC",
"|. c #FC00FC",
" X c #E000E4",
".X c #C800CC",
"XX c #B400B4",
"oX c #9C009C",
"OX c #840084",
"+X c #6C0070",
"@X c #580058",
"#X c #400040",
"$X c #FCE8DC",
"%X c #FCE0D0",
"&X c #FCD8C4",
"*X c #FCD4BC",
"=X c #FCCCB0",
"-X c #FCC4A4",
";X c #FCBC9C",
":X c #FCB890",
">X c #FCB080",
",X c #FCA470",
"<X c #FC9C60",
"1X c #F0945C",
"2X c #E88C58",
"3X c #DC8854",
"4X c #D08050",
"5X c #C87C4C",
"6X c #BC7848",
"7X c #B47044",
"8X c #A86840",
"9X c #A0643C",
"0X c #9C6038",
"qX c #905C34",
"wX c #885830",
"eX c #80502C",
"rX c #744C28",
"tX c #6C4824",
"yX c #5C4020",
"uX c #543C1C",
"iX c #483818",
"pX c #403018",
"aX c #382C14",
"sX c #28200C",
"dX c #600064",
"fX c #006464",
"gX c #006060",
"hX c #00001C",
"jX c #00002C",
"kX c #302410",
"lX c #480048",
"zX c #500050",
"xX c #000034",
"cX c gray11",
"vX c #4C4C4C",
"bX c gray36",
"nX c gray25",
"mX c gray19",
"MX c #343434",
"NX c #D8F4F4",
"BX c #B8E8E8",
"VX c #9CDCDC",
"CX c #74C8C8",
"ZX c #48C0C0",
"AX c #20B4B4",
"SX c #20B0B0",
"DX c #00A4A4",
"FX c #009898",
"GX c #008C8C",
"HX c #008484",
"JX c #007C7C",
"KX c #007878",
"LX c #007474",
"PX c #007070",
"IX c #006C6C",
"UX c #980088",
/* pixels */
"cXL.nXq $ L.e kXq kXL.cXe cXcXcXe mXiXsXcXcXe mXyX$ bX7 7 bX$ nX$ bXeX$ $ $ mXcXe mXnXnXnXnXmXmXmXq q mXmX$ nXq mXmXq mXmXmXL.cX",
"cXmXrXyXq q pXpXnXq q kXcXe cXL.$ 6 6 $ iXL.mXnXq nX$ 7 6 wX$ $ $ bX$ bX6 5 nXe L.nX$ $ $ $ mXq nXnXq mXnXwXbXbXbX7 qXbX$ rXmXcX",
"cXmXnXmXL.mXpXe pXmXpXpXL.iXcXmXyXwXwX6 bXmXq iXiXmXyXrXbX$ rXeX$ $ $ $ 6 4 $ cXmXnXnX$ nXq mXq q mXL.e q 7 6 5 5 6 7 bX6 7 nXe ",
"cXL.nXL.e e pXe q mXpXpXbXnXsXL.mX$ $ 7 $ L.L.L.L.L.q nX$ $ $ $ nX$ nXyX7 qXyXcXmXmXq yXq mXkXmXmXL.e e mXbX6 6 6 bX$ 7 5 6 nXL.",
"cXe L.e e cXkXe mXmXq kXmXq cXe L.q uX$ mXe cXe e mXmXnXnXmXiXmXnX$ nX$ 7 nXL.cXkXL.mXmXL.L.mXmXmXmXL.iXnX$ $ $ uXmXq 6 5 8X$ L.",
"cXcXe e e mXe iXmXmXuXe nXmXcXe L.mXmXq mXcXcXkXe e iXiXmXL.mXmXnX$ $ $ 7 nXe e e e e e e mXq q mXmXmXq nXnXq mXL.L.mX$ bX8XeXL.",
"cXcXcXe e L.L.iXmXL.mXmXq L.cXe mXmXmXq mXcXcXe kXmXmXmXmXL.mXiXyX$ $ $ 7 nXe e cXcXe L.kXuXyX$ nXuXuXyXuXiXkXe e L.L.mX$ 5 $ mX",
"cXcXcXcXcXe e e e e e e cXcXcXe mXnXnXnXiXcXcXcXe e mXq q mXuXnX$ $ rX$ bXmXcXcXcXcXL.L.mXyXrX$ nXyXmXq q mXe L.L.mXe mX$ 7 nXmX",
"cXcXcXcXcXcXcXe e cXe cXcXcXcXe mX$ nX$ mXcXcXcXcXmXnXnXyXq nXnXnX$ nXnXq kXcXcXcXL.mXmXq q nX$ yXmXkXiXmXmXkXmXiXmXmXq $ $ nXmX",
"cXcXcXe L.mXmXq q mXmXmXL.cXe mXnX$ $ nXmXe cXcXsXmXuXuXmXmXmXmXmXmXmXmXmXL.cXcXcXe kXmXuXq uXq mXL.mXiXmXmXmXq q q q $ $ nXq L.",
"cXcXe L.uXq nXvXnX$ $ 7 $ iXL.mXq nXq q L.e e L.mXmXmXmXmXiXmXq mXmXmXmXq L.e L.e cXe mXiXmXmXmXL.mXmXmXmXmXmXmXq mXq q nXnXmXL.",
"e e mXL.mXq nXq q q q q q mXL.mXmXq mXmXe e L.q q q mXmXmXpXmXvXq q mXmXL.L.L.mXL.e cXe L.L.L.L.mXL.mXmXmXmXmXmXmXmXmXmXq q q L.",
"cXe iXmXiXq mXL.L.L.mXmXmXmXL.e e L.mXL.e cXL.mXq yXq mXmXmXmXuXnXmXiXmXmXmXmXmXmXe cXe e e e L.mXmXmXL.e L.mXmXmXmXmXmXmXuXuXmX",
"cXe mXmXmXiXkXL.e L.L.q nXmXL.e e L.kXL.cXcXe mXq yXuXpXmXkXL.kXkXsXL.mXmXq q q mXcXe L.cXcXcXL.q mXmXmXL.mXmXmXmXmXmXmXL.mXnXmX",
"cXcXe e e e e cXcXe L.L.L.sXcXcXcXe e cXcXcXsXmXyXnXiXmXkXsXmXmXe e kXiXq nXnXuXmXe e mXcXcXcXe L.mXmXL.L.mXq mXmXmXL.L.mXnXnXkX",
"cXcXe cXL.e e sXkXmXmXmXmXkXe cXcXL.L.L.cXcXcXL.mXmXkXmXmXiXuXiXkXmXq nX$ $ nXq mXcXcXL.cXcXcXL.mXmXmXL.mXmXq mXL.L.e e mXnXq e ",
"cXe L.L.q mXiXnX$ rX$ bXqXrXq mXiX$ rX$ L.cXcXe e e mXq q q q mXyXnXyXq nXnXiXL.L.cXcXcXcXcXcXL.mXmXmXmXmXmXmXL.e cXcXe mXnXmXcX",
"cXL.mXq mX$ nX$ $ $ bX7 6 bXnXnXnX$ eXnXkXcXcXcXcXcXL.mXL.L.sXe e e e e e e e cXe cXcXcXcXcXcXL.L.L.L.L.L.L.e cXcXcXL.q nXnXL.cX",
"L.q nXnXnXnXnXnX$ $ $ rXbX$ nXq mXmXmXq uXkXe e cXcXcXcXe cXe e cXcXe L.cXe e mXmXL.e cXcXcXcXcXe e e e e e cXcXcXmXyXnXnXq e cX",
"mXnXnXnXnXmXq nX$ $ nXyX$ nXnXmXL.L.L.kXq mXuXnXcXcXcXmXiXmXL.pXL.L.q pXe q q 6 6 bX$ mXe cXcXcXcXe e e e cXcXcXL.iX$ nXnXmXe cX",
"L.q nXq mXe L.mXnXnXq iXq q mXL.e e e e mXmXnX$ L.cXuX6 6 bXq q pXq vXq mX5 6 6 6 7 bXnXe cXcXcXcXcXcXcXcXsXe e L.mXq mXmXL.cXcX",
"e mXq mXmXe L.cXL.L.cXL.L.L.e e e cXcXe L.L.q $ mXcXnX5 6 bX7 mXq nXvXq $ 6 bX$ nXbXbX$ mXcXcXcXcXcXcXcXcXcXcXcXcXcXL.L.L.cXcXcX",
"cXL.mXmXmXL.mXcXe e cXmXmXmXe e cXcXe L.mXmXq $ q cX$ 7 $ nXbXkXnXq nXmXnX$ $ $ $ $ bXbXnXe cXcXcXcXcXcXcXcXcXcXcXcXe cXcXcXcXcX",
"cXcXL.mXL.e kXmXe e cXL.kXL.cXcXcXe L.L.mXmXnXnXmXcXnXbX$ mXq e q nXq mXnXnXnX$ rXnX$ $ $ L.cXcXcXcXcXe iXe e kXL.L.e cXcXcXcXcX",
"cXcXcXcXcXcXcXcXe e cXcXcXe cXcXcXe cXcXcXe e e cXcXmX$ nXmXmXiXmXnXmXnXnXq nXyXyXnX$ $ q L.cXcXL.mXcXe kXpXpXq pXpXe mXq q L.cX",
"cXcXcXcXcXe sXe e cXe e e e e e L.L.e cXcXcXcXe e cXmXnXq mXmXmXL.mXkXnXq q yXnXnX$ rXnXmXe cXe mXmXcXe pXpXq nXpXe e bX6 6 nXL.",
"cXcXcXL.iXyX$ $ $ mXnXrX$ nXyXnX$ e nXmXL.mXq $ mXcXmXnXq mXq q mXe cXmXmXq nXnX$ $ nXmXmXe cXmXq mXL.cXe pXpXq mXcXL.q $ qXbXkX",
"cXcXe mXnXbX7 7 7 $ rX$ $ $ $ kXq e L.uXnXbXbX6 $ e mXnXq nXnXq mXe e mXmXq nXnX$ nXmXL.L.cXe q nXnXmXe cXe e pXL.e e mX$ wX$ e ",
"cXcXL.mXuXeX6 7 bX$ $ nXyXnXq e pXpXe nX$ bXbX7 nXe L.nXnXnXnXmXmXcXq q q nXL.$ $ yXmXL.cXcXL.nXnXyXmXe cXcXcXkXe L.L.iXyXrXq e ",
"cXcXcXsXkX$ $ $ q iXL.L.mXmXq cXpXL.kXq mXmXiXq e cXe nXq mXmXL.L.e e mXmXmXcXmXnXkXL.e e cXe mXmXiXL.e cXe e L.e L.L.mXnXq L.cX",
"cXcXcXcXcXe L.sXcXcXcXcXe L.mXcXe mXnXL.L.e cXcXcXcXcXe e cXcXcXe cXcXcXcXcXcXcXe e pXpXiXcXcXcXe e e cXcXcXe cXcXcXcXe e cXcXcX",
"cXcXe e e L.cXcXe L.cXcXcXcXcXcXe e e cXcXcXcXcXe e e L.mXe L.L.iXsXL.e e cXe cXcXe nXq q e cXcXe e e cXcXe e e e cXcXcXcXcXcXcX",
"cXL.nXq $ L.e kXq kXL.cXe cXcXcXe mXiXsXcXcXe mXyX$ bX7 7 bX$ nX$ bXeX$ $ $ mXcXe mXnXnXnXnXmXmXmXq q mXmX$ nXq mXmXq mXmXmXL.cX",
"cXmXrXyXq q pXpXnXq q kXcXe cXL.$ 6 6 $ iXL.mXnXq nX$ 7 6 wX$ $ $ bX$ bX6 5 nXe L.nX$ $ $ $ mXq nXnXq mXnXwXbXbXbX7 qXbX$ rXmXcX",
"cXmXnXmXL.mXpXe pXmXpXpXL.iXcXmXyXwXwX6 bXmXq iXiXmXyXrXbX$ rXeX$ $ $ $ 6 4 $ cXmXnXnX$ nXq mXq q mXL.e q 7 6 5 5 6 7 bX6 7 nXe ",
"cXL.nXL.e e pXe q mXpXpXbXnXsXL.mX$ $ 7 $ L.L.L.L.L.q nX$ $ $ $ nX$ nXyX7 qXyXcXmXmXq yXq mXkXmXmXL.e e mXbX6 6 6 bX$ 7 5 6 nXL.",
"cXe L.e e cXkXe mXmXq kXmXq cXe L.q uX$ mXe cXe e mXmXnXnXmXiXmXnX$ nX$ 7 nXL.cXkXL.mXmXL.L.mXmXmXmXL.iXnX$ $ $ uXmXq 6 5 8X$ L.",
"cXcXe e e mXe iXmXmXuXe nXmXcXe L.mXmXq mXcXcXkXe e iXiXmXL.mXmXnX$ $ $ 7 nXe e e e e e e mXq q mXmXmXq nXnXq mXL.L.mX$ bX8XeXL.",
"cXcXcXe e L.L.iXmXL.mXmXq L.cXe mXmXmXq mXcXcXe kXmXmXmXmXL.mXiXyX$ $ $ 7 nXe e cXcXe L.kXuXyX$ nXuXuXyXuXiXkXe e L.L.mX$ 5 $ mX",
"cXcXcXcXcXe e e e e e e cXcXcXe mXnXnXnXiXcXcXcXe e mXq q mXuXnX$ $ rX$ bXmXcXcXcXcXL.L.mXyXrX$ nXyXmXq q mXe L.L.mXe mX$ 7 nXmX",
"cXcXcXcXcXcXcXe e cXe cXcXcXcXe mX$ nX$ mXcXcXcXcXmXnXnXyXq nXnXnX$ nXnXq kXcXcXcXL.mXmXq q nX$ yXmXkXiXmXmXkXmXiXmXmXq $ $ nXmX",
"cXcXcXe L.mXmXq q mXmXmXL.cXe mXnX$ $ nXmXe cXcXsXmXuXuXmXmXmXmXmXmXmXmXmXL.cXcXcXe kXmXuXq uXq mXL.mXiXmXmXmXq q q q $ $ nXq L.",
"cXcXe L.uXq nXvXnX$ $ 7 $ iXL.mXq nXq q L.e e L.mXmXmXmXmXiXmXq mXmXmXmXq L.e L.e cXe mXiXmXmXmXL.mXmXmXmXmXmXmXq mXq q nXnXmXL.",
"e e mXL.mXq nXq q q q q q mXL.mXmXq mXmXe e L.q q q mXmXmXpXmXvXq q mXmXL.L.L.mXL.e cXe L.L.L.L.mXL.mXmXmXmXmXmXmXmXmXmXq q q L.",
"cXe iXmXiXq mXL.L.L.mXmXmXmXL.e e L.mXL.e cXL.mXq yXq mXmXmXmXuXnXmXiXmXmXmXmXmXmXe cXe e e e L.mXmXmXL.e L.mXmXmXmXmXmXmXuXuXmX",
"cXe mXmXmXiXkXL.e L.L.q nXmXL.e e L.kXL.cXcXe mXq yXuXpXmXkXL.kXkXsXL.mXmXq q q mXcXe L.cXcXcXL.q mXmXmXL.mXmXmXmXmXmXmXL.mXnXmX",
"cXcXe e e e e cXcXe L.L.L.sXcXcXcXe e cXcXcXsXmXyXnXiXmXkXsXmXmXe e kXiXq nXnXuXmXe e mXcXcXcXe L.mXmXL.L.mXq mXmXmXL.L.mXnXnXkX",
"cXcXe cXL.e e sXkXmXmXmXmXkXe cXcXL.L.L.cXcXcXL.mXmXkXmXmXiXuXiXkXmXq nX$ $ nXq mXcXcXL.cXcXcXL.mXmXmXL.mXmXq mXL.L.e e mXnXq e ",
"cXe L.L.q mXiXnX$ rX$ bXqXrXq mXiX$ rX$ L.cXcXe e e mXq q q q mXyXnXyXq nXnXiXL.L.cXcXcXcXcXcXL.mXmXmXmXmXmXmXL.e cXcXe mXnXmXcX",
"cXL.mXq mX$ nX$ $ $ bX7 6 bXnXnXnX$ eXnXkXcXcXcXcXcXL.mXL.L.sXe e e e e e e e cXe cXcXcXcXcXcXL.L.L.L.L.L.L.e cXcXcXL.q nXnXL.cX",
"L.q nXnXnXnXnXnX$ $ $ rXbX$ nXq mXmXmXq uXkXe e cXcXcXcXe cXe e cXcXe L.cXe e mXmXL.e cXcXcXcXcXe e e e e e cXcXcXmXyXnXnXq e cX",
"mXnXnXnXnXmXq nX$ $ nXyX$ nXnXmXL.L.L.kXq mXuXnXcXcXcXmXiXmXL.pXL.L.q pXe q q 6 6 bX$ mXe cXcXcXcXe e e e cXcXcXL.iX$ nXnXmXe cX",
"L.q nXq mXe L.mXnXnXq iXq q mXL.e e e e mXmXnX$ L.cXuX6 6 bXq q pXq vXq mX5 6 6 6 7 bXnXe cXcXcXcXcXcXcXcXsXe e L.mXq mXmXL.cXcX",
"e mXq mXmXe L.cXL.L.cXL.L.L.e e e cXcXe L.L.q $ mXcXnX5 6 bX7 mXq nXvXq $ 6 bX$ nXbXbX$ mXcXcXcXcXcXcXcXcXcXcXcXcXcXL.L.L.cXcXcX",
"cXL.mXmXmXL.mXcXe e cXmXmXmXe e cXcXe L.mXmXq $ q cX$ 7 $ nXbXkXnXq nXmXnX$ $ $ $ $ bXbXnXe cXcXcXcXcXcXcXcXcXcXcXcXe cXcXcXcXcX",
"cXcXL.mXL.e kXmXe e cXL.kXL.cXcXcXe L.L.mXmXnXnXmXcXnXbX$ mXq e q nXq mXnXnXnX$ rXnX$ $ $ L.cXcXcXcXcXe iXe e kXL.L.e cXcXcXcXcX",
"cXcXcXcXcXcXcXcXe e cXcXcXe cXcXcXe cXcXcXe e e cXcXmX$ nXmXmXiXmXnXmXnXnXq nXyXyXnX$ $ q L.cXcXL.mXcXe kXpXpXq pXpXe mXq q L.cX",
"cXcXcXcXcXe sXe e cXe e e e e e L.L.e cXcXcXcXe e cXmXnXq mXmXmXL.mXkXnXq q yXnXnX$ rXnXmXe cXe mXmXcXe pXpXq nXpXe e bX6 6 nXL.",
"cXcXcXL.iXyX$ $ $ mXnXrX$ nXyXnX$ e nXmXL.mXq $ mXcXmXnXq mXq q mXe cXmXmXq nXnX$ $ nXmXmXe cXmXq mXL.cXe pXpXq mXcXL.q $ qXbXkX",
"cXcXe mXnXbX7 7 7 $ rX$ $ $ $ kXq e L.uXnXbXbX6 $ e mXnXq nXnXq mXe e mXmXq nXnX$ nXmXL.L.cXe q nXnXmXe cXe e pXL.e e mX$ wX$ e ",
"cXcXL.mXuXeX6 7 bX$ $ nXyXnXq e pXpXe nX$ bXbX7 nXe L.nXnXnXnXmXmXcXq q q nXL.$ $ yXmXL.cXcXL.nXnXyXmXe cXcXcXkXe L.L.iXyXrXq e ",
"cXcXcXsXkX$ $ $ q iXL.L.mXmXq cXpXL.kXq mXmXiXq e cXe nXq mXmXL.L.e e mXmXmXcXmXnXkXL.e e cXe mXmXiXL.e cXe e L.e L.L.mXnXq L.cX",
"cXcXcXcXcXe L.sXcXcXcXcXe L.mXcXe mXnXL.L.e cXcXcXcXcXe e cXcXcXe cXcXcXcXcXcXcXe e pXpXiXcXcXcXe e e cXcXcXe cXcXcXcXe e cXcXcX",
"cXcXe e e L.cXcXe L.cXcXcXcXcXcXe e e cXcXcXcXcXe e e L.mXe L.L.iXsXL.e e cXe cXcXe nXq q e cXcXe e e cXcXe e e e cXcXcXcXcXcXcX"
};
