/* XPM */
static char *_41688bc30df4674c46ed35bfd937d77fJppX3EG9EHehk4K[] = {
/* columns rows colors chars-per-pixel */
"64 64 256 2 ",
"   c black",
".  c #0000A8",
"X  c #00A800",
"o  c #00A8A8",
"O  c #A80000",
"+  c #A800A8",
"@  c #A85400",
"#  c gray66",
"$  c gray33",
"%  c #5454FC",
"&  c #54FC54",
"*  c #54FCFC",
"=  c #FC5454",
"-  c #FC54FC",
";  c #FCFC54",
":  c gray99",
">  c #ECECEC",
",  c gainsboro",
"<  c #D0D0D0",
"1  c #C0C0C0",
"2  c #B4B4B4",
"3  c gray66",
"4  c #989898",
"5  c gray55",
"6  c #7C7C7C",
"7  c gray44",
"8  c #646464",
"9  c gray33",
"0  c #484848",
"q  c gray22",
"w  c #2C2C2C",
"e  c #202020",
"r  c #FC0000",
"t  c #EC0000",
"y  c #E00000",
"u  c #D40000",
"i  c #C80000",
"p  c #BC0000",
"a  c #B00000",
"s  c #A40000",
"d  c #980000",
"f  c #880000",
"g  c #7C0000",
"h  c #700000",
"j  c #640000",
"k  c #580000",
"l  c #4C0000",
"z  c #400000",
"x  c #FCD8D8",
"c  c #FCB8B8",
"v  c #FC9C9C",
"b  c #FC7C7C",
"n  c #FC5C5C",
"m  c #FC4040",
"M  c #FC2020",
"N  c #FC0000",
"B  c #FCA85C",
"V  c #FC9840",
"C  c #FC8820",
"Z  c #FC7800",
"A  c #E46C00",
"S  c #CC6000",
"D  c #B45400",
"F  c #9C4C00",
"G  c #FCFCD8",
"H  c #FCFCB8",
"J  c #FCFC9C",
"K  c #FCFC7C",
"L  c #FCF85C",
"P  c #FCF440",
"I  c #FCF420",
"U  c #FCF400",
"Y  c #E4D800",
"T  c #CCC400",
"R  c #B4AC00",
"E  c #9C9C00",
"W  c #848400",
"Q  c #706C00",
"!  c #585400",
"~  c #404000",
"^  c #D0FC5C",
"/  c #C4FC40",
"(  c #B4FC20",
")  c #A0FC00",
"_  c #90E400",
"`  c #80CC00",
"'  c #74B400",
"]  c #609C00",
"[  c #D8FCD8",
"{  c #BCFCB8",
"}  c #9CFC9C",
"|  c #80FC7C",
" . c #60FC5C",
".. c #40FC40",
"X. c #20FC20",
"o. c #00FC00",
"O. c #00FC00",
"+. c #00EC00",
"@. c #00E000",
"#. c #00D400",
"$. c #04C800",
"%. c #04BC00",
"&. c #04B000",
"*. c #04A400",
"=. c #049800",
"-. c #048800",
";. c #047C00",
":. c #047000",
">. c #046400",
",. c #045800",
"<. c #044C00",
"1. c #044000",
"2. c #D8FCFC",
"3. c #B8FCFC",
"4. c #9CFCFC",
"5. c #7CFCF8",
"6. c #5CFCFC",
"7. c #40FCFC",
"8. c #20FCFC",
"9. c #00FCFC",
"0. c #00E4E4",
"q. c #00CCCC",
"w. c #00B4B4",
"e. c #009C9C",
"r. c #008484",
"t. c #007070",
"y. c #005858",
"u. c #004040",
"i. c #5CBCFC",
"p. c #40B0FC",
"a. c #20A8FC",
"s. c #009CFC",
"d. c #008CE4",
"f. c #007CCC",
"g. c #006CB4",
"h. c #005C9C",
"j. c #D8D8FC",
"k. c #B8BCFC",
"l. c #9C9CFC",
"z. c #7C80FC",
"x. c #5C60FC",
"c. c #4040FC",
"v. c #2024FC",
"b. c #0004FC",
"n. c #0000FC",
"m. c #0000EC",
"M. c #0000E0",
"N. c #0000D4",
"B. c #0000C8",
"V. c #0000BC",
"C. c #0000B0",
"Z. c #0000A4",
"A. c #000098",
"S. c #000088",
"D. c #00007C",
"F. c #000070",
"G. c #000064",
"H. c #000058",
"J. c #00004C",
"K. c #000040",
"L. c #282828",
"P. c #FCE034",
"I. c #FCD424",
"U. c #FCCC18",
"Y. c #FCC008",
"T. c #FCB400",
"R. c #B420FC",
"E. c #A800FC",
"W. c #9800E4",
"Q. c #8000CC",
"!. c #7400B4",
"~. c #60009C",
"^. c #500084",
"/. c #440070",
"(. c #340058",
"). c #280040",
"_. c #FCD8FC",
"`. c #FCB8FC",
"'. c #FC9CFC",
"]. c #FC7CFC",
"[. c #FC5CFC",
"{. c #FC40FC",
"}. c #FC20FC",
"|. c #FC00FC",
" X c #E000E4",
".X c #C800CC",
"XX c #B400B4",
"oX c #9C009C",
"OX c #840084",
"+X c #6C0070",
"@X c #580058",
"#X c #400040",
"$X c #FCE8DC",
"%X c #FCE0D0",
"&X c #FCD8C4",
"*X c #FCD4BC",
"=X c #FCCCB0",
"-X c #FCC4A4",
";X c #FCBC9C",
":X c #FCB890",
">X c #FCB080",
",X c #FCA470",
"<X c #FC9C60",
"1X c #F0945C",
"2X c #E88C58",
"3X c #DC8854",
"4X c #D08050",
"5X c #C87C4C",
"6X c #BC7848",
"7X c #B47044",
"8X c #A86840",
"9X c #A0643C",
"0X c #9C6038",
"qX c #905C34",
"wX c #885830",
"eX c #80502C",
"rX c #744C28",
"tX c #6C4824",
"yX c #5C4020",
"uX c #543C1C",
"iX c #483818",
"pX c #403018",
"aX c #382C14",
"sX c #28200C",
"dX c #600064",
"fX c #006464",
"gX c #006060",
"hX c #00001C",
"jX c #00002C",
"kX c #302410",
"lX c #480048",
"zX c #500050",
"xX c #000034",
"cX c gray11",
"vX c #4C4C4C",
"bX c gray36",
"nX c gray25",
"mX c gray19",
"MX c #343434",
"NX c #D8F4F4",
"BX c #B8E8E8",
"VX c #9CDCDC",
"CX c #74C8C8",
"ZX c #48C0C0",
"AX c #20B4B4",
"SX c #20B0B0",
"DX c #00A4A4",
"FX c #009898",
"GX c #008C8C",
"HX c #008484",
"JX c #007C7C",
"KX c #007878",
"LX c #007474",
"PX c #007070",
"IX c #006C6C",
"UX c #980088",
/* pixels */
"0 vX0 vX$ vX0 0 0 vXvX0 0 0 0 0 vXvX$ $ $ 0 vXvXvXvXvXvXvX0 0 0 0 nX0 0 0 0 nX0 vX0 0 0 nXnXnX0 0 0 0 0 0 0 0 0 0 0 0 vX0 nX0 0 ",
"7 7 7 7 7 8 8 8 8 7 7 7 7 7 8 8 7 7 6 5 7 7 7 7 7 7 7 7 7 7 7 7 7 7 7 7 7 8 8 8 7 7 7 8 7 8 7 7 6 6 6 6 6 7 7 8 8 bX8 bXbX8 7 8 ",
"8 8 8 bXbX$ bXbX8 8 7 8 8 8 7 7 7 7 7 6 8 8 8 7 7 7 7 7 8 8 7 8 7 7 7 8 8 bXbX8 8 7 7 7 8 8 8 7 7 7 7 6 6 6 8 8 bXbX8 8 8 8 7 8 ",
"7 6 6 7 8 8 8 7 7 7 6 7 7 6 6 6 6 6 6 5 7 7 7 6 7 6 6 6 7 6 6 7 6 6 6 6 6 6 6 6 6 6 6 6 6 6 6 6 6 7 6 6 5 6 7 7 7 8 8 7 6 6 6 7 ",
"6 6 7 7 7 7 8 7 7 7 6 7 7 6 6 6 5 6 5 5 6 6 7 5 6 5 5 6 6 6 6 6 6 6 6 5 6 6 6 6 6 6 6 5 5 5 5 5 5 6 6 6 5 6 6 7 7 7 7 7 6 7 6 7 ",
"$ $ $ $ $ $ vX$ $ $ bX$ $ $ bXbX8 bX8 bXbX$ $ 7 bX8 bXbXbXbXbX$ $ $ $ $ bX$ $ bX$ $ bXbXbXbX8 8 8 bX8 8 8 8 bX$ $ vXvXvX$ vX$ $ ",
"vX0 nX0 0 nXnX0 0 0 0 0 0 nXnXnX0 0 0 0 0 0 0 0 0 0 0 0 0 0 0 nXnXnX0 0 0 0 nXnXnXnX0 0 vX0 0 0 0 0 nXnX0 0 0 0 nX0 0 nXnX0 0 vX",
"7 7 7 7 7 7 7 7 7 7 8 8 8 8 8 8 8 8 7 7 7 7 7 7 7 7 8 8 7 7 7 8 bX8 8 7 7 7 8 8 8 8 7 7 7 7 7 7 7 7 8 8 7 7 7 7 8 8 7 7 8 7 8 7 ",
"5 4 4 5 4 4 5 4 4 5 5 5 5 5 6 5 5 5 5 5 5 4 4 5 4 5 5 6X6XE E E E E E E 6X6X6 5 4 5 4 4 4 4 5 5 5 5 5 5 4 5 4 5 5 5 4 4 5 5 5 5 ",
"4 4 4 4 4 4 4 4 5 5 5 5 5 5 5 5 5 5 5 4 4 4 4 5 6XE R T I.I.T W R R T I.Y T E E 7X5 4 4 4 4 5 5 5 5 5 5 4 4 4 5 5 5 5 5 4 5 5 5 ",
"4 # 4 4 4 5 5 5 5 5 5 5 5 4 5 5 4 4 5 4 4 5 E E Y Y T R T I.I.T W T T I.T E Y T T R 6X5 4 4 4 4 4 5 5 5 5 5 5 5 5 5 5 5 5 5 5 5 ",
"4 4 4 4 4 4 4 4 4 4 4 4 5 5 5 4 4 4 4 5 E R T T R T I.R E T T T Q T T T ! R T T T T T R 6X4 4 4 4 4 5 5 5 5 5 6 6 5 5 4 5 5 5 5 ",
"4 4 4 4 4 # 4 4 4 4 4 4 5 5 5 4 # 4 6XT I.I.I.Y T T R T T R T T E T Y R T T E R Y T T I.T R 5 4 4 4 4 4 4 4 5 6 5 4 5 4 5 5 4 5 ",
"4 # # 4 4 4 4 4 4 4 4 4 4 5 5 4 5 E T T T Y I I.T T T R R R W ! R W T ! R T T T T Y Y R W Q E 6X4 4 4 4 # 4 4 5 5 4 4 5 5 4 5 5 ",
"4 4 4 4 4 4 4 4 4 4 4 4 5 5 5 5 E Y I.R R Q E R T R E W R W W W W E E ! T T R T T E E W T R I.R 6X5 4 # # 4 4 5 4 4 4 4 4 4 4 5 ",
"4 4 4 4 4 4 4 4 4 4 4 4 5 5 6 R Y I.I R T Y I.Q W W E E ! ~ ~ kX~ ~ ~ ~ Q E E R R W T T T R Y Y E 6X4 # # # 4 4 4 4 # 4 4 4 4 5 ",
"4 4 4 4 4 4 5 5 5 4 4 4 5 6 E I Y I.I.R Y T R R W W ! ~ ~ ! ! ! Y W ! ! ! ~ W E Q I.R T E E I.I.E R 7X# # 4 4 4 5 5 4 4 4 4 4 4 ",
"4 4 4 4 4 4 5 4 4 4 4 5 6 E T T I.T I.R E W E E ~ ~ ~ ! ! Q Q T Y I.R ~ ! ! ~ ~ ! W W R R T Y I.Q Y R 6 # 4 4 4 5 4 4 4 5 4 4 4 ",
"4 4 4 5 5 5 4 4 4 4 # 4 8XE R Y Y Y Y T R W Q ! ~ ! Q Q W E T T Y Y I.E W Q ~ ~ ~ kXW E T R T T Q T R E 5 4 4 5 5 5 4 4 5 5 5 4 ",
"4 4 4 4 4 5 4 4 4 # 4 6 E Y T Y W T Y E W ! ~ ! W E E E E T Y Y T Y T ! W E Q ! Q ~ ~ kXW Q T R R E R W 8X5 4 5 5 5 5 5 5 5 5 4 ",
"4 4 4 4 4 4 4 4 # # 5 E T E R W R Y W R Q ~ ! W E E E E T Y Y Y I.T ! ! W E W W W ! ! ! ~ W T E T R E ! R 6 4 5 5 5 4 5 5 4 4 5 ",
"4 4 4 4 4 4 4 4 4 4 8XT T W R R T E E W ~ ! W E E E E T I.Y Y I.T Q ~ W E E W W W E W ! ~ ! E E W T R R R E 5 4 4 4 4 4 4 4 4 5 ",
"4 4 4 4 4 4 4 4 4 5 E I.T T T T W Q Q ~ Q Q R E E E T I.Y Y I.Y ! ! W E E E T R W E W W Q ! Q E W R T Y Y T 6 4 4 4 4 4 4 4 4 5 ",
"4 4 4 4 4 4 4 4 4 6 T Y T I.Y Y E T Q ! W W R R E T I.I.I.I.Y ! ! Q E E W R Y Y E W E W E Q ~ W T T Y Y Y T 9X5 4 4 4 4 4 4 4 5 ",
"4 4 4 4 4 4 4 4 5 9XR T Y R I.Y T R ~ Q W E W E T I.I.I.I.T Q ! W E R E R Y Y I.Y E W W E W ~ Q I.Y I.T I.E E 6 # 4 4 4 4 4 4 5 ",
"4 4 4 4 4 # 4 4 6 E T T Y R I.E T ~ ! Q W W E T I.Y I.I.I R ~ E E E W R Y Y Y I.Y I.W E E W ! ~ T I.T Y R E R 9X4 # # # 4 4 4 4 ",
"4 4 4 4 4 4 4 4 6 R T E R E T E W ! W W E E E ! T I.I.Y I.I R W E E E Y Y I.I Y I Y Y W W W W ! ! Y E T E T R 9X5 4 4 4 4 4 5 4 ",
"4 4 4 4 4 4 4 5 9XR R R E R R E Q Q W E E E E ! Q T I.I.I.I.I.R W R T I.Y I.Y Y I.I.I.Y W W E W Q Y T E W R R E 5 4 4 4 5 5 4 4 ",
"4 4 4 4 4 4 4 5 9XR Y T E T Y E ~ W E W E E E W ! Q T I.I.I.I I T Y Y I.Y I R Y I.I.I.Y Y W W E ~ T T E E R T E 7 5 4 4 5 4 5 4 ",
"4 4 4 4 4 4 4 5 W I I.Y R I.Y T ~ E W T Y E W W E ! ! T I.I.I.I.I.I.I.I.I.R ~ Q T I.I.Y Y T W W ! R I.Y R Y T R 7 4 4 4 4 4 4 4 ",
"4 4 4 4 4 4 4 6 W I.Y I.R T T R ! E R Y I.I.E W W Q ~ Q T I I I.I I.I.I.R ~ ~ ~ W Y I.I.I.Y T W Q R I.I.R Y T R 7 5 4 4 4 4 4 4 ",
"4 4 4 4 4 4 4 6 E Y R Y R T T E ~ T Y I.Y Y I.Q E Q W ~ ! I.I.I.I.I.I.T ~ ~ E W ~ W Y I.Y I.I T Q R T Y R Y R T qX5 4 4 4 4 4 4 ",
"4 4 4 4 4 4 4 6 E R R Y E T R E ~ W Y I.Y I.Y I.W Q W Q T I.I.I Y I.Y I E Q E E W ! W Y I I.T ! ! E T Y E T T T qX6 4 4 4 4 4 4 ",
"5 4 5 5 5 5 4 6 W Y T R E T R T Q ~ W T I.I.I.I.Y Q Q R I.Y I.Y I I.I.Y I.R W E E W ! Q Y Y W ~ E T R E Q Y R R wX6 5 5 4 4 5 5 ",
"5 4 4 5 5 4 4 6 W R Q R R E E T ~ W ! W I.I.I.I.Y Y R Y I.Y Y I.Y Y I.I.I.Y R W E E Q ~ Q Q ~ Q ! R W Q T R Q R bX6 5 5 5 5 5 5 ",
"5 5 4 5 5 5 4 6 qXY E E R I.R T Q W Q ~ W Y I.I.I.Y Y Y I.I.I.E W T Y Y I.Y I E W E W Q ~ ~ ! E Q Y E Y T T E E 8 5 4 4 5 5 5 5 ",
"4 4 5 5 5 5 5 6 wXT R T Y Y T R Q Q E ! ~ W Y I.Y I.Y I.I.I.R ! ~ ! R I.I.I.Y I.R W W W Q Q W W E I.T Y I.T Y E 7 4 4 4 4 5 5 4 ",
"4 5 5 6 5 6 5 6 bXR T T T T I.W E Q W W ! ~ W I.I.I.Y I I R ~ ! Q ~ Q T Y Y I.I.Y E Q W W W W W T I.R I.I.T T W 7 4 4 4 4 5 5 4 ",
"5 5 5 5 5 6 5 6 bXE Y R T E Y E E Q Q W W Q ~ W Y I.Y I.R ! ! Q W Q Q Y Y Y Y I.T Q W E E E E Q I.T T T Y R T wX6 4 4 4 # 4 4 4 ",
"5 5 5 5 4 5 5 5 8 W I.E T E E R R ! Q W Q W Q ~ W T I.R ! ~ ! W E E Y Y Y I.Y T Q kXW W E E E E T E T R T R R bX5 4 4 4 # 4 4 4 ",
"5 5 4 4 5 5 5 5 7 rXE R W R Q T Y R Q W W W W Q ~ W E ~ ~ Q W W W T Y Y Y Y T Q ~ Q E E E E Q R E E R T E R W 8 5 4 4 4 4 4 4 4 ",
"4 5 4 5 5 5 5 5 6 bXE R T W E R Y Y R ! Q W W W ! ~ ~ ~ Q W W E Y Y Y Y Y T Q ~ ! E E E E W R T T E E W E T rX6 4 # 4 4 4 5 5 4 ",
"5 4 5 5 5 5 5 4 5 8 wXR R T T T I.T Y ! E ! W W W ! Q Q W W W T T Y T I.T Q ~ ! W E E W E E Y T T W Q R R E $ 5 5 4 4 4 5 5 5 5 ",
"5 5 5 5 5 5 4 4 5 6 vXE T T Y R Y R T R Q ! W W Q W W Q W E T Y Y Y Y T Q ~ ~ W E E W W ! T R Y R R R R R rX8 5 5 5 4 4 4 5 5 5 ",
"4 5 5 5 5 5 5 5 5 5 8 rXR T T Y E T R E R R Q W W Q W W Q W Y I.Y I.Y Q ~ Q Q W E E W Q E R R R R Y Y T W vX5 4 4 4 4 4 4 4 4 5 ",
"4 4 5 5 5 5 5 5 5 5 6 vXW T R T W R R W T Y R Q Q W W W W ~ Q Y I.Y W ~ ! Q W E E Q E R Q W R E Y T R R tX8 4 4 4 4 4 4 4 4 4 5 ",
"4 4 5 5 5 5 5 5 5 5 5 8 0 W T R W R E R Y T I.R ! W Q W W Q ~ Q T Q kX! Q W W W Q R T R R T E R E E R rX$ 6 4 4 4 # # 4 4 4 5 5 ",
"5 4 4 5 5 5 5 5 5 5 5 5 bXyXW T W E T T Y Y T T W E Q ! ! ! ~ ~ ! ~ ! W Q W Q E E E R Y Y T E Q E E W nX7 5 5 4 4 4 4 4 4 # 4 5 ",
"4 4 5 5 4 5 5 5 5 5 5 4 6 vXtXE T R R T T R Y T T E R R T E E ! ! Q E E R T E T T R T R Y T R R T W q 8 5 5 5 4 4 4 4 4 5 4 5 5 ",
"5 4 4 5 4 5 5 5 5 5 5 5 5 6 vXrXE Y T R Y T E W Q T Y R Y I.I.W T E Y I.T ! R I.R E E T T T T R W nXbX5 5 5 5 4 4 4 4 5 5 5 5 5 ",
"5 4 4 5 4 4 5 5 5 5 6 5 5 5 7 0 tXW T T R T Y E Q R Y T R Y Y T ~ T I.Y R W I.R E ! R E R R R W q $ 7 6 6 5 5 4 4 4 5 5 5 5 5 5 ",
"5 5 5 5 4 4 4 4 5 5 5 5 5 6 5 7 0 uXW R Y T E Y T R R E Q Y T Y Q Y I.Y Q R R T T R E T R W Q q 8 6 5 4 5 5 5 5 5 5 5 5 4 4 4 5 ",
"5 5 4 4 4 4 4 4 4 5 5 6 6 6 5 5 5 bXnXrXW R R T T Y Y Y E Y T Y E T T R Q T Y T T T E E W yXnX8 6 5 5 5 5 5 5 4 4 4 5 4 4 5 4 4 ",
"5 5 4 4 5 5 4 4 4 5 5 5 6 6 6 4 4 5 7 0 uXW W W Y Y T E ! Y T T T T R R Q W E R T W Q rXq vX7 5 5 5 5 4 4 4 4 4 4 4 4 5 5 4 4 4 ",
"4 5 4 5 5 4 4 5 5 5 5 5 5 6 6 5 4 4 5 6 $ q q rXW Q W R W T E R R W R R Q R E W W yXmXnX8 6 5 4 5 5 5 4 4 4 4 4 4 4 4 4 5 5 5 4 ",
"5 5 5 5 5 4 5 5 5 4 5 5 5 5 5 5 4 4 4 4 5 6 8 nXq nXrXW E E Q Q W W R E W W yXq MX0 8 6 5 5 5 5 5 5 4 4 5 4 4 5 5 4 4 4 5 5 5 5 ",
"5 6 5 5 5 5 5 5 4 4 5 5 5 5 5 5 4 4 4 4 4 4 6 6 8 bX0 MXMXpXiXiXuXiXiXMXMXMX0 bX7 5 5 5 5 4 4 5 5 5 5 5 5 4 5 5 5 4 4 5 5 5 5 5 ",
"5 5 5 5 5 5 4 4 4 4 5 4 5 5 5 4 5 4 4 4 5 5 5 5 5 5 6 7 8 bXvX0 0 0 $ bX8 7 5 5 5 4 5 5 4 4 4 5 5 5 5 4 4 4 5 5 4 4 5 5 5 5 4 5 ",
"5 5 5 5 5 5 5 5 5 5 5 4 5 5 5 5 5 4 5 5 4 5 5 5 4 5 6 6 5 5 6 7 7 6 6 6 6 5 5 5 5 5 4 4 4 5 5 5 5 5 5 4 4 4 5 5 5 5 5 5 5 5 5 5 ",
"5 5 5 5 5 5 5 5 5 5 5 5 5 5 5 5 4 4 4 4 5 5 5 5 5 5 6 6 6 5 4 5 6 5 5 6 6 6 5 6 5 5 5 5 5 5 5 5 5 5 5 5 4 4 5 5 5 4 4 4 5 5 5 6 ",
"6 7 6 7 6 6 6 6 6 6 6 6 7 6 6 6 6 6 6 6 7 7 6 6 6 6 6 6 7 7 6 7 7 6 6 7 6 7 6 6 6 6 7 6 6 7 6 6 6 7 7 7 7 7 6 6 6 6 6 6 6 6 6 7 ",
"vX0 0 0 0 0 0 0 0 0 0 0 nXvX$ vXvX0 0 0 0 0 0 0 0 vXvX0 0 0 0 0 0 nX0 0 nXnX0 nX0 vX0 0 0 nX0 0 0 nXnXnXnXnXnX0 nX0 nXnX0 0 0 0 ",
"$ bX$ $ $ $ $ $ $ $ $ bX$ $ bXbXbXbXbXbXbX$ bXbXbX$ $ bXbX$ vXvXvXvX$ $ $ $ $ vXvX$ $ vXvXvX$ $ vX$ $ $ $ $ bXbX$ vXvXvX$ $ $ $ ",
"bX8 8 bX8 8 8 8 8 8 8 8 8 8 7 7 7 8 7 8 8 8 7 7 7 8 8 8 8 bX$ bXbXbXbXbX8 7 8 bXbX$ bXbXbXbXbXbXbX8 8 bX8 bX8 8 8 8 8 8 8 bXbX$ "
};
