/* XPM */
static char *_843ae9f577842ceb67b5f76e09747b4F1zdghnhd5DBU3cq[] = {
/* columns rows colors chars-per-pixel */
"64 64 256 2 ",
"   c black",
".  c #0000A8",
"X  c #00A800",
"o  c #00A8A8",
"O  c #A80000",
"+  c #A800A8",
"@  c #A85400",
"#  c gray66",
"$  c gray33",
"%  c #5454FC",
"&  c #54FC54",
"*  c #54FCFC",
"=  c #FC5454",
"-  c #FC54FC",
";  c #FCFC54",
":  c gray99",
">  c #ECECEC",
",  c gainsboro",
"<  c #D0D0D0",
"1  c #C0C0C0",
"2  c #B4B4B4",
"3  c gray66",
"4  c #989898",
"5  c gray55",
"6  c #7C7C7C",
"7  c gray44",
"8  c #646464",
"9  c gray33",
"0  c #484848",
"q  c gray22",
"w  c #2C2C2C",
"e  c #202020",
"r  c #FC0000",
"t  c #EC0000",
"y  c #E00000",
"u  c #D40000",
"i  c #C80000",
"p  c #BC0000",
"a  c #B00000",
"s  c #A40000",
"d  c #980000",
"f  c #880000",
"g  c #7C0000",
"h  c #700000",
"j  c #640000",
"k  c #580000",
"l  c #4C0000",
"z  c #400000",
"x  c #FCD8D8",
"c  c #FCB8B8",
"v  c #FC9C9C",
"b  c #FC7C7C",
"n  c #FC5C5C",
"m  c #FC4040",
"M  c #FC2020",
"N  c #FC0000",
"B  c #FCA85C",
"V  c #FC9840",
"C  c #FC8820",
"Z  c #FC7800",
"A  c #E46C00",
"S  c #CC6000",
"D  c #B45400",
"F  c #9C4C00",
"G  c #FCFCD8",
"H  c #FCFCB8",
"J  c #FCFC9C",
"K  c #FCFC7C",
"L  c #FCF85C",
"P  c #FCF440",
"I  c #FCF420",
"U  c #FCF400",
"Y  c #E4D800",
"T  c #CCC400",
"R  c #B4AC00",
"E  c #9C9C00",
"W  c #848400",
"Q  c #706C00",
"!  c #585400",
"~  c #404000",
"^  c #D0FC5C",
"/  c #C4FC40",
"(  c #B4FC20",
")  c #A0FC00",
"_  c #90E400",
"`  c #80CC00",
"'  c #74B400",
"]  c #609C00",
"[  c #D8FCD8",
"{  c #BCFCB8",
"}  c #9CFC9C",
"|  c #80FC7C",
" . c #60FC5C",
".. c #40FC40",
"X. c #20FC20",
"o. c #00FC00",
"O. c #00FC00",
"+. c #00EC00",
"@. c #00E000",
"#. c #00D400",
"$. c #04C800",
"%. c #04BC00",
"&. c #04B000",
"*. c #04A400",
"=. c #049800",
"-. c #048800",
";. c #047C00",
":. c #047000",
">. c #046400",
",. c #045800",
"<. c #044C00",
"1. c #044000",
"2. c #D8FCFC",
"3. c #B8FCFC",
"4. c #9CFCFC",
"5. c #7CFCF8",
"6. c #5CFCFC",
"7. c #40FCFC",
"8. c #20FCFC",
"9. c #00FCFC",
"0. c #00E4E4",
"q. c #00CCCC",
"w. c #00B4B4",
"e. c #009C9C",
"r. c #008484",
"t. c #007070",
"y. c #005858",
"u. c #004040",
"i. c #5CBCFC",
"p. c #40B0FC",
"a. c #20A8FC",
"s. c #009CFC",
"d. c #008CE4",
"f. c #007CCC",
"g. c #006CB4",
"h. c #005C9C",
"j. c #D8D8FC",
"k. c #B8BCFC",
"l. c #9C9CFC",
"z. c #7C80FC",
"x. c #5C60FC",
"c. c #4040FC",
"v. c #2024FC",
"b. c #0004FC",
"n. c #0000FC",
"m. c #0000EC",
"M. c #0000E0",
"N. c #0000D4",
"B. c #0000C8",
"V. c #0000BC",
"C. c #0000B0",
"Z. c #0000A4",
"A. c #000098",
"S. c #000088",
"D. c #00007C",
"F. c #000070",
"G. c #000064",
"H. c #000058",
"J. c #00004C",
"K. c #000040",
"L. c #282828",
"P. c #FCE034",
"I. c #FCD424",
"U. c #FCCC18",
"Y. c #FCC008",
"T. c #FCB400",
"R. c #B420FC",
"E. c #A800FC",
"W. c #9800E4",
"Q. c #8000CC",
"!. c #7400B4",
"~. c #60009C",
"^. c #500084",
"/. c #440070",
"(. c #340058",
"). c #280040",
"_. c #FCD8FC",
"`. c #FCB8FC",
"'. c #FC9CFC",
"]. c #FC7CFC",
"[. c #FC5CFC",
"{. c #FC40FC",
"}. c #FC20FC",
"|. c #FC00FC",
" X c #E000E4",
".X c #C800CC",
"XX c #B400B4",
"oX c #9C009C",
"OX c #840084",
"+X c #6C0070",
"@X c #580058",
"#X c #400040",
"$X c #FCE8DC",
"%X c #FCE0D0",
"&X c #FCD8C4",
"*X c #FCD4BC",
"=X c #FCCCB0",
"-X c #FCC4A4",
";X c #FCBC9C",
":X c #FCB890",
">X c #FCB080",
",X c #FCA470",
"<X c #FC9C60",
"1X c #F0945C",
"2X c #E88C58",
"3X c #DC8854",
"4X c #D08050",
"5X c #C87C4C",
"6X c #BC7848",
"7X c #B47044",
"8X c #A86840",
"9X c #A0643C",
"0X c #9C6038",
"qX c #905C34",
"wX c #885830",
"eX c #80502C",
"rX c #744C28",
"tX c #6C4824",
"yX c #5C4020",
"uX c #543C1C",
"iX c #483818",
"pX c #403018",
"aX c #382C14",
"sX c #28200C",
"dX c #600064",
"fX c #006464",
"gX c #006060",
"hX c #00001C",
"jX c #00002C",
"kX c #302410",
"lX c #480048",
"zX c #500050",
"xX c #000034",
"cX c gray11",
"vX c #4C4C4C",
"bX c gray36",
"nX c gray25",
"mX c gray19",
"MX c #343434",
"NX c #D8F4F4",
"BX c #B8E8E8",
"VX c #9CDCDC",
"CX c #74C8C8",
"ZX c #48C0C0",
"AX c #20B4B4",
"SX c #20B0B0",
"DX c #00A4A4",
"FX c #009898",
"GX c #008C8C",
"HX c #008484",
"JX c #007C7C",
"KX c #007878",
"LX c #007474",
"PX c #007070",
"IX c #006C6C",
"UX c #980088",
/* pixels */
"8 8 bX8 5 5 5 7 6 7 8 8 8 8 8 8 vXvXvXvX8 8 8 8 8 8 8 vXvXvX8 8 5 5 6 8 8 8 8 6 5 5 6 5 5 7 4 5 7 5 5 6 5 5 6 7 5 7 7 8 8 8 8 8 ",
"4 5 6 8 5 # # # 4 # 4 6 5 4 # 4 5 7 7 6 6 5 5 5 4 # 5 5 5 4 , # # 1 8 vX7 5 5 # 2 # # # # # 2 # # 4 # # # 4 # 2 2 # 4 4 # # # # ",
"# 4 5 8 5 # # # # 5 6 6 4 # 4 4 6 7 7 5 5 5 5 # # 2 # 4 # 2 , 2 2 , 7 vX7 4 4 4 # # # # # # # # # # # # # 4 4 # 4 4 6 6 5 # 2 4 ",
"# 4 5 7 5 # # # 4 6 7 4 # , , # 2 1 # 4 5 5 5 2 # # # # # # # 2 # # 7 vX5 # # 2 # # # # # # # # # # 4 4 # # 4 # # # 5 5 5 5 6 4 ",
"4 5 5 7 5 4 4 5 7 8 7 5 5 # 2 1 2 # 5 4 4 5 5 4 2 2 5 4 # # 2 # 2 , 8 vX6 # # # # 2 2 # # # 4 4 4 4 5 5 4 # # # # # 4 6 5 5 5 6 ",
"5 7 8 $ 8 7 7 8 8 8 8 8 7 5 5 5 5 7 7 8 8 8 8 5 5 5 6 6 5 5 4 4 4 5 8 vX$ 7 5 5 5 4 4 5 6 7 7 7 7 7 8 8 6 5 5 5 5 5 6 6 6 6 6 7 ",
"nXq w w MXq w q MXw w MXMXq MXq MXMXw MXq MXMXw w w MXw w w w w L.e e L.w q w w MXMXw w w L.L.w w w MXq q nXnXvXvX$ vXvXnXq q q ",
"nXq w w MXq w q MXMXq w MXw w MXMXMXq MXMXw q MXMXw w w w w w w w e e L.w q w MXMXw w w L.w w w MXq nXnXvXvX$ vXnXq q q q w w q ",
"6 nXq w q nXnXnX$ q nXnX$ q MXq nXnXnXq q q nXnXnXnX$ $ q q vXvXvXe e w MXq nXnXq MXw w mXmXMXMXq vX$ $ $ 8 8 $ $ vXvXvXnXq w vX",
"7 8 $ MXnXvX$ $ vXvXvX$ $ vXnXvXvXvXvXnXnXnXvXvXvX$ $ $ vXvXvXvXvXMXw MXnXvXvXvXvXnXnXnXnXnXnXnXvX$ 8 8 7 6 7 7 8 8 $ 8 8 $ MX8 ",
"5 5 8 nX$ 8 8 8 $ $ $ 8 $ $ $ $ $ $ vXvXvXvX$ $ $ $ 8 8 $ $ $ $ 8 nXMXnXvX$ $ $ $ vXvXvXvX$ $ 8 7 8 8 6 6 6 6 6 6 7 7 6 5 8 nX8 ",
"4 5 $ vX$ 8 7 8 8 8 8 8 8 8 7 8 8 8 8 $ 8 8 $ $ $ $ 8 8 6 8 8 8 8 vXvX$ 8 8 8 vXvX$ $ $ 8 8 7 6 6 6 6 6 6 6 6 6 6 6 6 5 5 $ 8 7 ",
"5 5 $ vX$ 7 7 7 8 8 8 8 8 8 8 8 8 8 8 8 8 8 $ vXvX$ 8 8 $ $ $ 8 4 4 4 # # $ $ vXvX$ $ 8 7 6 6 5 5 5 6 6 6 6 6 5 5 5 5 5 5 8 8 6 ",
"4 5 7 vX8 8 7 8 8 8 8 8 8 8 8 8 8 8 8 8 8 8 $ vX$ $ 8 8 nX7 vX$ 8 4 4 4 5 $ 8 5 6 8 8 8 7 6 6 5 5 5 5 6 6 6 6 5 5 5 5 5 5 8 8 6 ",
"# 4 7 vX$ 8 8 8 8 8 8 8 8 8 8 8 8 8 8 8 7 8 $ vX$ $ $ 8 5 5 $ vX$ 8 8 6 6 $ 7 # 2 vX$ 8 7 6 6 5 5 5 6 6 6 6 6 5 5 6 6 6 6 7 8 6 ",
"# 4 7 vX$ 8 8 8 8 8 8 8 8 8 8 8 8 8 8 7 7 8 $ vX$ vXnX5 5 7 8 vXvX$ 8 8 $ MX8 5 4 4 vXnX6 6 6 6 5 6 6 6 7 7 6 6 5 7 7 6 6 8 8 7 ",
"5 4 8 $ vX8 8 8 8 8 8 8 8 8 8 8 8 8 8 7 7 8 8 $ vX8 $ 5 7 8 8 $ MXvXvXvXvXnX$ 7 7 8 $ nX8 7 7 6 6 6 6 6 7 7 6 6 6 7 8 7 6 8 8 7 ",
"4 5 8 vX$ 8 7 8 8 8 8 8 8 8 8 8 8 8 8 8 7 8 8 $ 7 8 7 7 8 $ $ vXL.nXnXnXMXvXnX$ 8 7 vXMX7 7 6 5 6 6 7 7 5 8 6 6 6 8 8 7 5 7 8 8 ",
"5 5 8 vX$ 7 7 7 8 8 8 8 8 8 8 8 8 8 8 8 8 8 vX7 2 $ 8 8 $ nXq L.mXL.L.L.L.L.nXnXvXvXvX7 4 5 5 5 5 7 8 7 7 8 6 5 7 8 8 7 7 8 8 6 ",
"6 5 7 vX8 6 6 7 8 8 8 7 8 6 6 8 8 8 8 vX$ vX7 # # vXvXvXvXL.L.mXmXL.L.L.mXmXL.L.L.MX$ 8 # 2 6 5 5 8 $ 7 7 8 7 6 8 $ 8 7 7 8 8 7 ",
"5 6 8 vX$ 8 6 8 $ 8 8 8 $ 8 6 $ 8 8 $ vXnXnX5 5 5 vXL.L.L.w nXnXMXL.L.L.L.w w w w MX8 8 5 4 $ 8 6 8 vX8 8 $ 8 5 8 vX$ 8 8 $ $ 8 ",
"8 8 $ vXvX$ $ vX$ $ $ $ vX$ $ $ $ $ $ nXq $ 7 7 7 vXL.w L.q q q nXw MXMXL.MXMXMXMXL.MX$ 7 6 7 MX8 vXvX$ $ vX$ 8 vXvXvX$ $ $ vX$ ",
"nXvX$ 8 8 8 8 6 8 8 8 vXvXvXvX$ $ $ $ q vX8 8 8 8 w w q q nXnXnXnXnXq MXw w mXpXpXpXe MX8 8 8 MXvXvXvXvX$ vXvXnXnXq q MXMXq nXnX",
"$ $ 8 6 6 5 5 5 5 6 6 6 7 8 7 8 8 8 $ L.w $ 8 8 vXq q q q nXvXvXvXvXq MXMXyXiXiXuXuXe e $ vXMXvX7 7 7 8 7 7 8 $ nXnXnXnXnXnXnXnX",
"$ 8 8 6 5 4 4 4 5 4 5 5 5 6 6 7 7 7 $ w vXnX8 8 w q q q nXvXvXvXvXvXnXq iXyXtXrXtXyXnXMXnXvXnX8 2 8 5 5 5 5 7 8 $ vXvXvXvXvXvX$ ",
"vX$ 8 8 6 6 5 5 5 6 8 6 4 5 6 7 7 8 L.5 4 4 nXL.L.q nXnXvXvXvXvXvXvXnXMXiXyXrXrXtXtXMXMXe L.8 4 4 vX8 4 5 5 7 8 vXnXnXnXnXnXnXvX",
"$ $ 8 8 8 6 5 5 6 6 8 6 6 6 7 8 $ 8 vX4 7 8 L.e q nXnXvX$ vXvXvXvXvXnXq iXyXrXrXtXyXuXnXe e 8 5 5 8 $ 6 5 6 7 $ vXnXnXnXnXnXnXvX",
"$ 8 8 8 8 8 6 5 6 6 6 6 7 8 8 $ 8 $ 8 5 8 8 e q nXvXvX$ $ vXvXvXvXvXnXq MXyXrXrXrXyXuXnXMXMXnX$ 8 7 vX6 6 7 7 $ vXvXnXnXnXnXvXvX",
"$ 8 8 8 $ $ 8 5 6 6 6 6 7 8 $ vXvXvX8 8 8 8 vXq vXvX$ $ $ vXvXvXvXvXnXq MXyXrXrXrXyXuXMXMXMXL.vX8 5 7 8 7 7 8 $ vXvXvXvXvXvX$ $ ",
"$ 8 8 8 $ $ 8 5 5 6 8 6 8 $ q vXnXvX8 8 8 $ q nXvXvXvX$ $ vXvXvXvXvXnXq iXuXtXrXrXyXuXnXMXMXL.nX8 $ $ $ 7 7 8 $ $ $ vXvX$ $ $ $ ",
"$ 8 8 $ $ $ 8 5 5 8 8 7 $ vXq nXvXL.8 8 $ MXnXnXvXvXvX$ $ vXvXvXvXvXvXq iXuXtXtXtXyXuXMXMXMXMXL.$ vXq $ $ 7 $ $ vXvX$ $ $ $ 8 $ ",
"$ 8 8 $ $ $ 8 6 6 8 $ 8 8 8 mXq vXvXvX$ MXe vXvXvXvXvXvXvXvXvXvXvXvXvXq q iXyXtXtXtXMXMXMXMXMXe MXnX$ 8 $ 8 8 vXnXvX$ vX$ $ $ $ ",
"8 8 8 8 $ 8 8 8 8 8 8 7 7 $ mXq vX4 nXMXe e vXvXvXvXvX$ $ vXvXvX$ vXnXMXMXq iXuXuXuXMXMXMXMXL.e e $ 7 4 7 8 8 vXnXnXnXnXnX$ $ 8 ",
"$ $ 8 8 8 8 8 8 8 8 $ 7 7 nXq q $ 7 8 vXe q vXvXvXvXvX$ $ vXvX$ $ vXnXq MXMXiXiXMXMXnXnXnXMXL.L.e 7 5 4 5 8 vXvXvXnXnXnXnX$ $ 8 ",
"vX$ 8 8 8 8 8 8 8 8 $ vXq vXq q 8 8 4 vXq vXvXvXvXvXvXvX$ vX$ $ $ vXnXq nX$ $ $ $ $ $ $ vXnXL.L.e 8 4 4 # 8 8 $ $ nXnXnXnX$ $ $ ",
"nXnX$ 8 8 8 8 8 8 $ vXvXmXq L.nX$ 8 7 w q vXvX$ $ vXvXvXvXvX$ $ $ vXnXq vX$ $ $ $ $ $ $ vXnXL.L.q $ 8 5 6 6 7 $ $ nXnXnX$ $ vXnX",
"q nXnXnXvXvXnXvXvXnXnXnXmXe vXq vX8 vXe vXvX$ $ $ $ vXvXvXvX$ $ $ vXnXq $ $ $ $ $ $ $ $ vXnXL.L.MXMX$ 7 8 8 5 nXnXq q nXnXnXnXnX",
"mXmXmXq nXnXMXnXnXnXnXq w L.mXMXMXnXmXL.vXvX$ $ $ $ $ vXvXvXvX$ $ vXvXq $ $ $ $ vX$ $ $ vXnXL.L.MXmXmXMXMXnXmXMXMXMXmXMXq nXq MX",
"MXMXq nX$ $ $ $ $ vXvXL.vXbX6 # 5 4 4 $ $ $ $ $ $ vXvXvXvXvXvXvXvXvXvXvXq nX$ vXvXvXvXnXq q q q nXvX6 # 5 4 4 nXnXmXnXnXnX$ vXnX",
"MXq nX$ 8 8 # # # 5 5 q q $ bX6 vX$ # vX$ $ $ vXvXvXvXvXvXvXvXvXvXvXvXvXq nX$ $ vXvXvXnXq q q q mXvXbX6 vX$ # vXnXnX$ $ 8 8 $ nX",
"MXnXnX$ 8 6 6 8 8 8 vXmXnXnXvXbX$ 6 # vXvX$ vXvXvX$ $ $ vXvXvXvXvXvXvXvXq nX$ vXvXvXvXnXq q q nXq q vXbX$ 6 # $ $ $ 8 6 6 6 8 vX",
"mXnXnXvX$ 8 8 8 8 $ nXmXq nXmXvX7 8 5 vXvXvXvXvX$ $ $ $ $ vXvXvXvXvXvXvXq q $ vXvXvXvXnXq q nXnXmXq mXvX7 8 5 $ $ $ 8 6 6 6 8 nX",
"mXq nX$ $ 8 8 8 8 $ nXL.nXvX8 vX7 6 5 vXvXvXvXvX$ $ $ $ vXvXvXvXvXvXvXvXMXq $ vXvXvXvXnXq q q q q nX8 vX7 6 5 8 $ $ 6 6 6 6 5 vX",
"mXnX$ $ 8 8 8 8 8 $ nXL.q 8 7 6 8 7 5 vXvXvXvXvXvXvXvXvXvXvXvXvXvXvXvXvXMXMXnXvXvXvXvXnXq q q mXmX$ 7 6 8 7 5 8 $ 8 8 6 6 6 8 vX",
"mXnX$ 8 8 8 8 8 8 $ nXL.q $ 7 5 0 nX5 q q nXnXnXnXnXnXnXvXvXvXvXvXvXvXnXMXMXq nXvXvXvXnXq q q mXmXvX7 5 0 nX5 8 8 8 8 8 8 8 $ nX",
"mXnX$ 8 8 8 8 8 8 $ nXL.q bX6 6 8 0 # MXMXMXMXiXiXiXiXuXuXnXnXnXnXnXiXMXmXmXmXMXMXMXMXiXiXL.L.L.mXvX6 6 8 0 # 8 8 8 8 8 8 8 $ nX",
"mXnX$ 8 8 8 8 8 8 $ nXe nXvX6 8 8 $ # q MXMXiXyXyXyXuXuXyXuXuXiXiXiXuXiXiXiXiXpXmXmXpXMXMXL.L.L.q nX6 8 8 $ # $ $ 8 8 8 8 8 8 nX",
"mXnX$ 8 8 8 8 8 8 $ nXe $ nXnXbX6 6 # nXiXiXuXtXtXrXrXrXrXrXrXrXrXrXrXrXrXrXuXiXuXiXuXrXuXL.mXmXvXq nXbX6 6 # $ $ 8 8 8 8 6 8 MX",
"MXnX8 8 8 6 6 6 8 $ nXe bX8 8 bX7 7 6 nXiXuXtXrXrXrXrXrXtXtXtXtXtXtXtXtXtXtXtXtXtXtXtXtXuXMXmXmXvX$ 8 bX7 7 6 $ $ 8 8 6 8 6 8 nX",
"MXnX$ 8 8 6 6 6 8 $ q L.$ nX8 $ 5 8 6 q iXuXtXrXrXrXrXtXtXtXtXtXtXtXtXtXtXtXtXtXtXtXtXtXyXMXmXnXvXq 8 $ 5 8 6 $ $ 8 6 6 6 6 8 nX",
"mXq nX$ 8 8 8 8 $ vXL.mXmXq nXvXvX$ vXMXMXuXrXrXrXrXrXtXtXtXtXtXtXtXtXtXrXrXrXtXtXtXtXtXuXMXmXnXmXq nXbX$ vX6 8 8 8 8 6 6 8 $ nX",
"mXMXnXnX$ $ $ $ $ q L.L.mXq nXvX$ $ vXMXMXuXrXrXrXrXrXtXtXtXtXtXtXtXtXtXrXrXrXtXtXtXtXtXuXMXmXmXe cXe L.L.L.nX$ $ $ 8 6 6 8 $ nX",
"mXmXMXnXnXnXnXnXnXmXe cXnXvX8 5 7 5 6 q MXuXrXrXrXtXtXtXtXtXtXtXtXtXtXtXtXtXtXtXtXtXtXtXuXMXmXmXmXnX8 5 7 5 6 nXnXvX$ 8 $ vXnXq ",
"mXmXMXMXq q nXMXq w e cXiXvXbX4 7 6 # nXiXyXrXrXtXtXtXrXrXtXtXtXtXtXtXtXtXtXtXtXtXtXtXtXuXMXmXmXpXnXbX4 7 6 # vXnXnXvX$ nXnXq MX",
"nXnXMXnXnXnXnXnXvXq L.cXnXq nX$ q 8 # nXiXiXrXrXrXrXrXrXrXrXtXtXtXtXtXtXtXtXtXtXtXtXtXtXuXMXmXmXq mXnX$ q 8 # 8 8 8 8 8 $ nXnXnX",
"nXnXvX$ $ $ $ $ $ vXq L.q nXvX$ $ 7 # nXiXMXyXrXrXrXrXrXrXrXtXtXtXtXtXtXtXtXtXtXtXtXtXtXyXiXMXmXmXq vX$ $ 7 # 6 6 5 5 6 8 $ vXnX",
"$ $ $ 8 8 $ $ 8 8 $ nXmXq q vX$ $ 0 5 nXiXiXyXrXrXrXrXrXrXtXtXtXtXtXrXrXtXtXtXtXtXtXtXtXyXiXMXuXmXmXvX$ $ 0 5 6 6 4 4 5 8 $ $ $ ",
"nXnXnX8 $ $ $ nX8 $ q mXvXq vXvXnX0 6 nXiXiXyXrXrXrXrXrXtXtXtXtXtXtXtXtXtXtXtXtXtXtXtXtXyXiXMXuXuXmXvXvXnX0 6 $ 8 5 # 6 $ $ nX$ ",
"nXnXnX$ $ $ $ $ 8 $ nXmXvXnXvXtXyX0 7 nXiXiXyXrXrXtXtXtXtXtXtXtXtXtXyXtXtXtXtXtXtXtXtXtXuXMXmXmXuXq vXtXyX0 7 8 8 5 5 6 8 $ vXnX",
"nXnXnXnXnXnXnX$ $ $ nXmXnXvX8 8 $ $ # nXiXiXyXrXtXtXtXtXtXtXtXtXtXtXyXyXtXtXtXtXtXtXtXtXuXMXmXmXq nX8 8 $ $ # 8 6 5 5 6 8 $ nXnX",
"nXnXnXnXnXnXnX$ $ $ nXL.vX$ 6 6 8 $ # nXiXq yXtXtXtXtXtXtXtXtXtXtXyXyXyXyXtXtXtXtXtXtXtXuXMXmXmXnXvX6 6 8 $ # 6 6 6 6 8 8 $ $ nX",
"nXnXnXnXnXnXnX$ 8 $ nXe vX$ 7 7 8 vX2 nXq MXuXyXyXyXyXtXtXyXyXuXuXuXuXuXuXyXyXyXyXyXyXyXyXmXmXmXnXvX7 7 8 vX2 6 6 8 8 $ $ nXnXnX",
"nXnXnXnXnXnXnX$ 8 $ nXe $ 8 8 7 $ nX# q q MXq iXiXiXiXiXiXiXiXq q q q q q q nXq q iXiXiXiXL.L.L.vX$ 8 7 $ nX# 5 6 8 nXvXvXnXnXnX",
"nX$ nXnXnXnXnX$ 8 $ nXe bX$ 8 7 7 vX6 nXq nXnXq nXnXnXnXnXnXnXnXnXnXq nXnXq nXMXq MXq w L.L.mXmXvXvX8 7 7 vX6 5 6 8 $ $ nXnXnXnX"
};
